<mxfile host="www.draw.io" modified="2019-12-06T03:53:00.678Z" agent="Mozilla/5.0 (Windows NT 10.0; Win64; x64; rv:70.0) Gecko/20100101 Firefox/70.0" etag="6vy0olQ2Q084JxwZwxKI" version="12.3.7" type="github" pages="1">
  <diagram id="NFb6xIKv0WvjEmluln3C" name="第 1 页">
    <mxGraphModel dx="622" dy="-1231" grid="0" gridSize="10" guides="1" tooltips="1" connect="1" arrows="1" fold="1" page="0" pageScale="1" pageWidth="827" pageHeight="1169" math="0" shadow="0">
      <root>
        <mxCell id="0"/>
        <mxCell id="1" parent="0"/>
        <mxCell id="BwGiMZjiIL-_lYg8AVQy-2" value="11" style="rounded=0;whiteSpace=wrap;html=1;" parent="1" vertex="1">
          <mxGeometry x="1020" y="2420" width="40" height="30" as="geometry"/>
        </mxCell>
        <mxCell id="BwGiMZjiIL-_lYg8AVQy-3" value="19" style="rounded=0;whiteSpace=wrap;html=1;" parent="1" vertex="1">
          <mxGeometry x="1060" y="2420" width="40" height="30" as="geometry"/>
        </mxCell>
        <mxCell id="BwGiMZjiIL-_lYg8AVQy-4" value="" style="rounded=0;whiteSpace=wrap;html=1;" parent="1" vertex="1">
          <mxGeometry x="1100" y="2420" width="40" height="30" as="geometry"/>
        </mxCell>
        <mxCell id="BwGiMZjiIL-_lYg8AVQy-5" value="" style="rounded=0;whiteSpace=wrap;html=1;" parent="1" vertex="1">
          <mxGeometry x="1140" y="2420" width="40" height="30" as="geometry"/>
        </mxCell>
        <mxCell id="BwGiMZjiIL-_lYg8AVQy-7" value="1" style="rounded=0;whiteSpace=wrap;html=1;" parent="1" vertex="1">
          <mxGeometry x="840" y="2490" width="40" height="30" as="geometry"/>
        </mxCell>
        <mxCell id="BwGiMZjiIL-_lYg8AVQy-8" value="2" style="rounded=0;whiteSpace=wrap;html=1;" parent="1" vertex="1">
          <mxGeometry x="880" y="2490" width="40" height="30" as="geometry"/>
        </mxCell>
        <mxCell id="BwGiMZjiIL-_lYg8AVQy-9" value="8" style="rounded=0;whiteSpace=wrap;html=1;" parent="1" vertex="1">
          <mxGeometry x="920" y="2490" width="40" height="30" as="geometry"/>
        </mxCell>
        <mxCell id="BwGiMZjiIL-_lYg8AVQy-10" value="10" style="rounded=0;whiteSpace=wrap;html=1;" parent="1" vertex="1">
          <mxGeometry x="960" y="2490" width="40" height="30" as="geometry"/>
        </mxCell>
        <mxCell id="BwGiMZjiIL-_lYg8AVQy-12" value="19" style="rounded=0;whiteSpace=wrap;html=1;" parent="1" vertex="1">
          <mxGeometry x="1260" y="2490" width="40" height="30" as="geometry"/>
        </mxCell>
        <mxCell id="BwGiMZjiIL-_lYg8AVQy-13" value="26" style="rounded=0;whiteSpace=wrap;html=1;" parent="1" vertex="1">
          <mxGeometry x="1300" y="2490" width="40" height="30" as="geometry"/>
        </mxCell>
        <mxCell id="BwGiMZjiIL-_lYg8AVQy-14" value="" style="rounded=0;whiteSpace=wrap;html=1;" parent="1" vertex="1">
          <mxGeometry x="1340" y="2490" width="40" height="30" as="geometry"/>
        </mxCell>
        <mxCell id="BwGiMZjiIL-_lYg8AVQy-15" value="" style="rounded=0;whiteSpace=wrap;html=1;" parent="1" vertex="1">
          <mxGeometry x="1380" y="2490" width="40" height="30" as="geometry"/>
        </mxCell>
        <mxCell id="BwGiMZjiIL-_lYg8AVQy-19" value="" style="endArrow=none;html=1;entryX=0.05;entryY=1.033;entryDx=0;entryDy=0;entryPerimeter=0;exitX=0.5;exitY=0;exitDx=0;exitDy=0;exitPerimeter=0;" parent="1" source="BwGiMZjiIL-_lYg8AVQy-7" target="BwGiMZjiIL-_lYg8AVQy-2" edge="1">
          <mxGeometry width="50" height="50" relative="1" as="geometry">
            <mxPoint x="1050" y="2620" as="sourcePoint"/>
            <mxPoint x="1100" y="2570" as="targetPoint"/>
          </mxGeometry>
        </mxCell>
        <mxCell id="BwGiMZjiIL-_lYg8AVQy-20" value="" style="endArrow=none;html=1;entryX=0;entryY=1.033;entryDx=0;entryDy=0;entryPerimeter=0;exitX=0.5;exitY=0;exitDx=0;exitDy=0;" parent="1" source="BwGiMZjiIL-_lYg8AVQy-12" target="BwGiMZjiIL-_lYg8AVQy-4" edge="1">
          <mxGeometry width="50" height="50" relative="1" as="geometry">
            <mxPoint x="1140" y="2630" as="sourcePoint"/>
            <mxPoint x="1190" y="2580" as="targetPoint"/>
          </mxGeometry>
        </mxCell>
        <mxCell id="BwGiMZjiIL-_lYg8AVQy-21" value="11" style="rounded=0;whiteSpace=wrap;html=1;" parent="1" vertex="1">
          <mxGeometry x="1050" y="2490" width="40" height="30" as="geometry"/>
        </mxCell>
        <mxCell id="BwGiMZjiIL-_lYg8AVQy-22" value="13" style="rounded=0;whiteSpace=wrap;html=1;" parent="1" vertex="1">
          <mxGeometry x="1090" y="2490" width="40" height="30" as="geometry"/>
        </mxCell>
        <mxCell id="BwGiMZjiIL-_lYg8AVQy-23" value="15" style="rounded=0;whiteSpace=wrap;html=1;" parent="1" vertex="1">
          <mxGeometry x="1130" y="2490" width="40" height="30" as="geometry"/>
        </mxCell>
        <mxCell id="BwGiMZjiIL-_lYg8AVQy-24" value="" style="rounded=0;whiteSpace=wrap;html=1;" parent="1" vertex="1">
          <mxGeometry x="1170" y="2490" width="40" height="30" as="geometry"/>
        </mxCell>
        <mxCell id="BwGiMZjiIL-_lYg8AVQy-28" value="" style="endArrow=none;html=1;entryX=-0.025;entryY=1.033;entryDx=0;entryDy=0;exitX=0.5;exitY=0;exitDx=0;exitDy=0;entryPerimeter=0;" parent="1" source="BwGiMZjiIL-_lYg8AVQy-21" target="BwGiMZjiIL-_lYg8AVQy-3" edge="1">
          <mxGeometry width="50" height="50" relative="1" as="geometry">
            <mxPoint x="1180" y="2640" as="sourcePoint"/>
            <mxPoint x="1230" y="2590" as="targetPoint"/>
          </mxGeometry>
        </mxCell>
        <mxCell id="BwGiMZjiIL-_lYg8AVQy-37" value="29" style="rounded=0;whiteSpace=wrap;html=1;" parent="1" vertex="1">
          <mxGeometry x="1240" y="2360" width="40" height="30" as="geometry"/>
        </mxCell>
        <mxCell id="BwGiMZjiIL-_lYg8AVQy-38" value="" style="rounded=0;whiteSpace=wrap;html=1;" parent="1" vertex="1">
          <mxGeometry x="1280" y="2360" width="40" height="30" as="geometry"/>
        </mxCell>
        <mxCell id="BwGiMZjiIL-_lYg8AVQy-39" value="" style="rounded=0;whiteSpace=wrap;html=1;" parent="1" vertex="1">
          <mxGeometry x="1320" y="2360" width="40" height="30" as="geometry"/>
        </mxCell>
        <mxCell id="BwGiMZjiIL-_lYg8AVQy-40" value="" style="rounded=0;whiteSpace=wrap;html=1;" parent="1" vertex="1">
          <mxGeometry x="1360" y="2360" width="40" height="30" as="geometry"/>
        </mxCell>
        <mxCell id="BwGiMZjiIL-_lYg8AVQy-41" value="" style="endArrow=none;html=1;entryX=0;entryY=1;entryDx=0;entryDy=0;entryPerimeter=0;exitX=0.5;exitY=0;exitDx=0;exitDy=0;" parent="1" source="BwGiMZjiIL-_lYg8AVQy-2" target="BwGiMZjiIL-_lYg8AVQy-37" edge="1">
          <mxGeometry width="50" height="50" relative="1" as="geometry">
            <mxPoint x="1050" y="2390" as="sourcePoint"/>
            <mxPoint x="1100" y="2340" as="targetPoint"/>
          </mxGeometry>
        </mxCell>
        <mxCell id="BwGiMZjiIL-_lYg8AVQy-44" value="" style="rounded=0;whiteSpace=wrap;html=1;" parent="1" vertex="1">
          <mxGeometry x="1000" y="2490" width="20" height="30" as="geometry"/>
        </mxCell>
        <mxCell id="BwGiMZjiIL-_lYg8AVQy-45" value="" style="endArrow=classic;html=1;entryX=0;entryY=0.5;entryDx=0;entryDy=0;" parent="1" source="BwGiMZjiIL-_lYg8AVQy-44" target="BwGiMZjiIL-_lYg8AVQy-21" edge="1">
          <mxGeometry width="50" height="50" relative="1" as="geometry">
            <mxPoint x="1040" y="2610" as="sourcePoint"/>
            <mxPoint x="1090" y="2560" as="targetPoint"/>
          </mxGeometry>
        </mxCell>
        <mxCell id="BwGiMZjiIL-_lYg8AVQy-46" value="" style="rounded=0;whiteSpace=wrap;html=1;" parent="1" vertex="1">
          <mxGeometry x="1210" y="2490" width="20" height="30" as="geometry"/>
        </mxCell>
        <mxCell id="BwGiMZjiIL-_lYg8AVQy-47" value="" style="endArrow=classic;html=1;entryX=0;entryY=0.5;entryDx=0;entryDy=0;exitX=1;exitY=0.5;exitDx=0;exitDy=0;" parent="1" source="BwGiMZjiIL-_lYg8AVQy-46" target="BwGiMZjiIL-_lYg8AVQy-12" edge="1">
          <mxGeometry width="50" height="50" relative="1" as="geometry">
            <mxPoint x="1210" y="2580" as="sourcePoint"/>
            <mxPoint x="1260" y="2530" as="targetPoint"/>
          </mxGeometry>
        </mxCell>
        <mxCell id="BwGiMZjiIL-_lYg8AVQy-48" value="" style="endArrow=classic;html=1;exitX=1;exitY=0.5;exitDx=0;exitDy=0;" parent="1" source="BwGiMZjiIL-_lYg8AVQy-49" edge="1">
          <mxGeometry width="50" height="50" relative="1" as="geometry">
            <mxPoint x="1480" y="2560" as="sourcePoint"/>
            <mxPoint x="1470" y="2505" as="targetPoint"/>
          </mxGeometry>
        </mxCell>
        <mxCell id="BwGiMZjiIL-_lYg8AVQy-49" value="" style="rounded=0;whiteSpace=wrap;html=1;" parent="1" vertex="1">
          <mxGeometry x="1420" y="2490" width="20" height="30" as="geometry"/>
        </mxCell>
        <mxCell id="BwGiMZjiIL-_lYg8AVQy-55" value="6" style="rounded=0;whiteSpace=wrap;html=1;" parent="1" vertex="1">
          <mxGeometry x="1020" y="2620" width="40" height="30" as="geometry"/>
        </mxCell>
        <mxCell id="BwGiMZjiIL-_lYg8AVQy-56" value="11" style="rounded=0;whiteSpace=wrap;html=1;" parent="1" vertex="1">
          <mxGeometry x="1060" y="2620" width="40" height="30" as="geometry"/>
        </mxCell>
        <mxCell id="BwGiMZjiIL-_lYg8AVQy-57" value="19" style="rounded=0;whiteSpace=wrap;html=1;" parent="1" vertex="1">
          <mxGeometry x="1100" y="2620" width="40" height="30" as="geometry"/>
        </mxCell>
        <mxCell id="BwGiMZjiIL-_lYg8AVQy-58" value="" style="rounded=0;whiteSpace=wrap;html=1;" parent="1" vertex="1">
          <mxGeometry x="1140" y="2620" width="40" height="30" as="geometry"/>
        </mxCell>
        <mxCell id="BwGiMZjiIL-_lYg8AVQy-59" value="1" style="rounded=0;whiteSpace=wrap;html=1;" parent="1" vertex="1">
          <mxGeometry x="840" y="2690" width="40" height="30" as="geometry"/>
        </mxCell>
        <mxCell id="BwGiMZjiIL-_lYg8AVQy-60" value="2" style="rounded=0;whiteSpace=wrap;html=1;" parent="1" vertex="1">
          <mxGeometry x="880" y="2690" width="40" height="30" as="geometry"/>
        </mxCell>
        <mxCell id="BwGiMZjiIL-_lYg8AVQy-61" value="" style="rounded=0;whiteSpace=wrap;html=1;" parent="1" vertex="1">
          <mxGeometry x="920" y="2690" width="40" height="30" as="geometry"/>
        </mxCell>
        <mxCell id="BwGiMZjiIL-_lYg8AVQy-62" value="" style="rounded=0;whiteSpace=wrap;html=1;" parent="1" vertex="1">
          <mxGeometry x="960" y="2690" width="40" height="30" as="geometry"/>
        </mxCell>
        <mxCell id="BwGiMZjiIL-_lYg8AVQy-63" value="19" style="rounded=0;whiteSpace=wrap;html=1;" parent="1" vertex="1">
          <mxGeometry x="1450" y="2690" width="40" height="30" as="geometry"/>
        </mxCell>
        <mxCell id="BwGiMZjiIL-_lYg8AVQy-64" value="26" style="rounded=0;whiteSpace=wrap;html=1;" parent="1" vertex="1">
          <mxGeometry x="1490" y="2690" width="40" height="30" as="geometry"/>
        </mxCell>
        <mxCell id="BwGiMZjiIL-_lYg8AVQy-65" value="" style="rounded=0;whiteSpace=wrap;html=1;" parent="1" vertex="1">
          <mxGeometry x="1530" y="2690" width="40" height="30" as="geometry"/>
        </mxCell>
        <mxCell id="BwGiMZjiIL-_lYg8AVQy-66" value="" style="rounded=0;whiteSpace=wrap;html=1;" parent="1" vertex="1">
          <mxGeometry x="1570" y="2690" width="40" height="30" as="geometry"/>
        </mxCell>
        <mxCell id="BwGiMZjiIL-_lYg8AVQy-67" value="" style="endArrow=none;html=1;entryX=0.05;entryY=1.033;entryDx=0;entryDy=0;entryPerimeter=0;exitX=0.5;exitY=0;exitDx=0;exitDy=0;exitPerimeter=0;" parent="1" source="BwGiMZjiIL-_lYg8AVQy-59" target="BwGiMZjiIL-_lYg8AVQy-55" edge="1">
          <mxGeometry width="50" height="50" relative="1" as="geometry">
            <mxPoint x="1050" y="2820" as="sourcePoint"/>
            <mxPoint x="1100" y="2770" as="targetPoint"/>
          </mxGeometry>
        </mxCell>
        <mxCell id="BwGiMZjiIL-_lYg8AVQy-68" value="" style="endArrow=none;html=1;entryX=1;entryY=1;entryDx=0;entryDy=0;entryPerimeter=0;exitX=0.5;exitY=0;exitDx=0;exitDy=0;" parent="1" source="BwGiMZjiIL-_lYg8AVQy-63" target="BwGiMZjiIL-_lYg8AVQy-57" edge="1">
          <mxGeometry width="50" height="50" relative="1" as="geometry">
            <mxPoint x="1140" y="2830" as="sourcePoint"/>
            <mxPoint x="1190" y="2780" as="targetPoint"/>
          </mxGeometry>
        </mxCell>
        <mxCell id="BwGiMZjiIL-_lYg8AVQy-69" value="11" style="rounded=0;whiteSpace=wrap;html=1;" parent="1" vertex="1">
          <mxGeometry x="1250" y="2690" width="40" height="30" as="geometry"/>
        </mxCell>
        <mxCell id="BwGiMZjiIL-_lYg8AVQy-70" value="13" style="rounded=0;whiteSpace=wrap;html=1;" parent="1" vertex="1">
          <mxGeometry x="1290" y="2690" width="40" height="30" as="geometry"/>
        </mxCell>
        <mxCell id="BwGiMZjiIL-_lYg8AVQy-71" value="15" style="rounded=0;whiteSpace=wrap;html=1;" parent="1" vertex="1">
          <mxGeometry x="1330" y="2690" width="40" height="30" as="geometry"/>
        </mxCell>
        <mxCell id="BwGiMZjiIL-_lYg8AVQy-72" value="" style="rounded=0;whiteSpace=wrap;html=1;" parent="1" vertex="1">
          <mxGeometry x="1370" y="2690" width="40" height="30" as="geometry"/>
        </mxCell>
        <mxCell id="BwGiMZjiIL-_lYg8AVQy-73" value="" style="endArrow=none;html=1;entryX=1;entryY=1;entryDx=0;entryDy=0;exitX=0.5;exitY=0;exitDx=0;exitDy=0;entryPerimeter=0;" parent="1" source="BwGiMZjiIL-_lYg8AVQy-69" target="BwGiMZjiIL-_lYg8AVQy-56" edge="1">
          <mxGeometry width="50" height="50" relative="1" as="geometry">
            <mxPoint x="1180" y="2840" as="sourcePoint"/>
            <mxPoint x="1230" y="2790" as="targetPoint"/>
          </mxGeometry>
        </mxCell>
        <mxCell id="BwGiMZjiIL-_lYg8AVQy-74" value="29" style="rounded=0;whiteSpace=wrap;html=1;" parent="1" vertex="1">
          <mxGeometry x="1240" y="2560" width="40" height="30" as="geometry"/>
        </mxCell>
        <mxCell id="BwGiMZjiIL-_lYg8AVQy-75" value="" style="rounded=0;whiteSpace=wrap;html=1;" parent="1" vertex="1">
          <mxGeometry x="1280" y="2560" width="40" height="30" as="geometry"/>
        </mxCell>
        <mxCell id="BwGiMZjiIL-_lYg8AVQy-76" value="" style="rounded=0;whiteSpace=wrap;html=1;" parent="1" vertex="1">
          <mxGeometry x="1320" y="2560" width="40" height="30" as="geometry"/>
        </mxCell>
        <mxCell id="BwGiMZjiIL-_lYg8AVQy-77" value="" style="rounded=0;whiteSpace=wrap;html=1;" parent="1" vertex="1">
          <mxGeometry x="1360" y="2560" width="40" height="30" as="geometry"/>
        </mxCell>
        <mxCell id="BwGiMZjiIL-_lYg8AVQy-78" value="" style="endArrow=none;html=1;entryX=0;entryY=1;entryDx=0;entryDy=0;entryPerimeter=0;exitX=0.5;exitY=0;exitDx=0;exitDy=0;" parent="1" source="BwGiMZjiIL-_lYg8AVQy-55" target="BwGiMZjiIL-_lYg8AVQy-74" edge="1">
          <mxGeometry width="50" height="50" relative="1" as="geometry">
            <mxPoint x="1050" y="2590" as="sourcePoint"/>
            <mxPoint x="1100" y="2540" as="targetPoint"/>
          </mxGeometry>
        </mxCell>
        <mxCell id="BwGiMZjiIL-_lYg8AVQy-79" value="" style="rounded=0;whiteSpace=wrap;html=1;" parent="1" vertex="1">
          <mxGeometry x="1000" y="2690" width="20" height="30" as="geometry"/>
        </mxCell>
        <mxCell id="BwGiMZjiIL-_lYg8AVQy-80" value="" style="endArrow=classic;html=1;entryX=0;entryY=0.5;entryDx=0;entryDy=0;" parent="1" source="BwGiMZjiIL-_lYg8AVQy-79" target="BwGiMZjiIL-_lYg8AVQy-85" edge="1">
          <mxGeometry width="50" height="50" relative="1" as="geometry">
            <mxPoint x="1040" y="2810" as="sourcePoint"/>
            <mxPoint x="1090" y="2760" as="targetPoint"/>
          </mxGeometry>
        </mxCell>
        <mxCell id="BwGiMZjiIL-_lYg8AVQy-81" value="" style="rounded=0;whiteSpace=wrap;html=1;" parent="1" vertex="1">
          <mxGeometry x="1410" y="2690" width="20" height="30" as="geometry"/>
        </mxCell>
        <mxCell id="BwGiMZjiIL-_lYg8AVQy-82" value="" style="endArrow=classic;html=1;entryX=0;entryY=0.5;entryDx=0;entryDy=0;exitX=1;exitY=0.5;exitDx=0;exitDy=0;" parent="1" source="BwGiMZjiIL-_lYg8AVQy-81" target="BwGiMZjiIL-_lYg8AVQy-63" edge="1">
          <mxGeometry width="50" height="50" relative="1" as="geometry">
            <mxPoint x="1430" y="2780" as="sourcePoint"/>
            <mxPoint x="1480" y="2730" as="targetPoint"/>
          </mxGeometry>
        </mxCell>
        <mxCell id="BwGiMZjiIL-_lYg8AVQy-83" value="" style="endArrow=classic;html=1;exitX=1;exitY=0.5;exitDx=0;exitDy=0;" parent="1" source="BwGiMZjiIL-_lYg8AVQy-84" edge="1">
          <mxGeometry width="50" height="50" relative="1" as="geometry">
            <mxPoint x="1670" y="2760" as="sourcePoint"/>
            <mxPoint x="1652" y="2705" as="targetPoint"/>
          </mxGeometry>
        </mxCell>
        <mxCell id="BwGiMZjiIL-_lYg8AVQy-84" value="" style="rounded=0;whiteSpace=wrap;html=1;" parent="1" vertex="1">
          <mxGeometry x="1610" y="2690" width="20" height="30" as="geometry"/>
        </mxCell>
        <mxCell id="BwGiMZjiIL-_lYg8AVQy-85" value="6" style="rounded=0;whiteSpace=wrap;html=1;" parent="1" vertex="1">
          <mxGeometry x="1045" y="2690" width="40" height="30" as="geometry"/>
        </mxCell>
        <mxCell id="BwGiMZjiIL-_lYg8AVQy-86" value="8" style="rounded=0;whiteSpace=wrap;html=1;" parent="1" vertex="1">
          <mxGeometry x="1085" y="2690" width="40" height="30" as="geometry"/>
        </mxCell>
        <mxCell id="BwGiMZjiIL-_lYg8AVQy-87" value="10" style="rounded=0;whiteSpace=wrap;html=1;" parent="1" vertex="1">
          <mxGeometry x="1125" y="2690" width="40" height="30" as="geometry"/>
        </mxCell>
        <mxCell id="BwGiMZjiIL-_lYg8AVQy-88" value="" style="rounded=0;whiteSpace=wrap;html=1;" parent="1" vertex="1">
          <mxGeometry x="1165" y="2690" width="40" height="30" as="geometry"/>
        </mxCell>
        <mxCell id="BwGiMZjiIL-_lYg8AVQy-89" value="" style="endArrow=classic;html=1;exitX=1;exitY=0.5;exitDx=0;exitDy=0;entryX=0;entryY=0.5;entryDx=0;entryDy=0;" parent="1" source="BwGiMZjiIL-_lYg8AVQy-90" target="BwGiMZjiIL-_lYg8AVQy-69" edge="1">
          <mxGeometry width="50" height="50" relative="1" as="geometry">
            <mxPoint x="1265" y="2760" as="sourcePoint"/>
            <mxPoint x="1255" y="2705" as="targetPoint"/>
          </mxGeometry>
        </mxCell>
        <mxCell id="BwGiMZjiIL-_lYg8AVQy-90" value="" style="rounded=0;whiteSpace=wrap;html=1;" parent="1" vertex="1">
          <mxGeometry x="1205" y="2690" width="20" height="30" as="geometry"/>
        </mxCell>
        <mxCell id="BwGiMZjiIL-_lYg8AVQy-91" value="" style="endArrow=none;html=1;entryX=0.975;entryY=1.033;entryDx=0;entryDy=0;entryPerimeter=0;exitX=0.5;exitY=0;exitDx=0;exitDy=0;" parent="1" source="BwGiMZjiIL-_lYg8AVQy-85" target="BwGiMZjiIL-_lYg8AVQy-55" edge="1">
          <mxGeometry width="50" height="50" relative="1" as="geometry">
            <mxPoint x="1050" y="2840" as="sourcePoint"/>
            <mxPoint x="1100" y="2790" as="targetPoint"/>
          </mxGeometry>
        </mxCell>
        <mxCell id="BwGiMZjiIL-_lYg8AVQy-92" value="插入6" style="text;html=1;strokeColor=none;fillColor=none;align=center;verticalAlign=middle;whiteSpace=wrap;rounded=0;" parent="1" vertex="1">
          <mxGeometry x="840" y="2550" width="40" height="20" as="geometry"/>
        </mxCell>
        <mxCell id="BwGiMZjiIL-_lYg8AVQy-93" value="" style="endArrow=none;dashed=1;html=1;fillColor=#d5e8d4;strokeColor=#82b366;" parent="1" edge="1">
          <mxGeometry width="50" height="50" relative="1" as="geometry">
            <mxPoint x="831" y="2355" as="sourcePoint"/>
            <mxPoint x="1501" y="2355" as="targetPoint"/>
          </mxGeometry>
        </mxCell>
        <mxCell id="BwGiMZjiIL-_lYg8AVQy-94" value="" style="endArrow=none;dashed=1;html=1;fillColor=#f8cecc;strokeColor=#b85450;" parent="1" edge="1">
          <mxGeometry width="50" height="50" relative="1" as="geometry">
            <mxPoint x="1500.5" y="2523" as="sourcePoint"/>
            <mxPoint x="1501" y="2470" as="targetPoint"/>
          </mxGeometry>
        </mxCell>
        <mxCell id="BwGiMZjiIL-_lYg8AVQy-95" value="" style="endArrow=none;dashed=1;html=1;fillColor=#d5e8d4;strokeColor=#82b366;" parent="1" edge="1">
          <mxGeometry width="50" height="50" relative="1" as="geometry">
            <mxPoint x="830" y="2456" as="sourcePoint"/>
            <mxPoint x="1500" y="2456" as="targetPoint"/>
          </mxGeometry>
        </mxCell>
        <mxCell id="BwGiMZjiIL-_lYg8AVQy-96" value="" style="endArrow=none;dashed=1;html=1;fillColor=#d5e8d4;strokeColor=#82b366;" parent="1" edge="1">
          <mxGeometry width="50" height="50" relative="1" as="geometry">
            <mxPoint x="1500" y="2456" as="sourcePoint"/>
            <mxPoint x="1500" y="2356" as="targetPoint"/>
          </mxGeometry>
        </mxCell>
        <mxCell id="BwGiMZjiIL-_lYg8AVQy-98" value="" style="endArrow=none;dashed=1;html=1;fillColor=#f8cecc;strokeColor=#b85450;" parent="1" edge="1">
          <mxGeometry width="50" height="50" relative="1" as="geometry">
            <mxPoint x="830" y="2470" as="sourcePoint"/>
            <mxPoint x="1500" y="2470" as="targetPoint"/>
          </mxGeometry>
        </mxCell>
        <mxCell id="BwGiMZjiIL-_lYg8AVQy-99" value="" style="endArrow=none;dashed=1;html=1;fillColor=#f8cecc;strokeColor=#b85450;" parent="1" edge="1">
          <mxGeometry width="50" height="50" relative="1" as="geometry">
            <mxPoint x="830" y="2525" as="sourcePoint"/>
            <mxPoint x="1500" y="2525" as="targetPoint"/>
          </mxGeometry>
        </mxCell>
        <mxCell id="BwGiMZjiIL-_lYg8AVQy-100" value="" style="endArrow=none;dashed=1;html=1;fillColor=#f8cecc;strokeColor=#b85450;" parent="1" edge="1">
          <mxGeometry width="50" height="50" relative="1" as="geometry">
            <mxPoint x="830" y="2520" as="sourcePoint"/>
            <mxPoint x="830" y="2470" as="targetPoint"/>
          </mxGeometry>
        </mxCell>
        <mxCell id="BwGiMZjiIL-_lYg8AVQy-101" value="" style="endArrow=none;dashed=1;html=1;fillColor=#d5e8d4;strokeColor=#82b366;" parent="1" edge="1">
          <mxGeometry width="50" height="50" relative="1" as="geometry">
            <mxPoint x="831" y="2455" as="sourcePoint"/>
            <mxPoint x="831" y="2355" as="targetPoint"/>
          </mxGeometry>
        </mxCell>
        <mxCell id="BwGiMZjiIL-_lYg8AVQy-102" value="索引集" style="text;html=1;strokeColor=none;fillColor=none;align=center;verticalAlign=middle;whiteSpace=wrap;rounded=0;" parent="1" vertex="1">
          <mxGeometry x="840" y="2365" width="40" height="20" as="geometry"/>
        </mxCell>
        <mxCell id="BwGiMZjiIL-_lYg8AVQy-103" value="序列集" style="text;html=1;strokeColor=none;fillColor=none;align=center;verticalAlign=middle;whiteSpace=wrap;rounded=0;" parent="1" vertex="1">
          <mxGeometry x="840" y="2470" width="40" height="20" as="geometry"/>
        </mxCell>
        <mxCell id="BwGiMZjiIL-_lYg8AVQy-144" value="6" style="rounded=0;whiteSpace=wrap;html=1;" parent="1" vertex="1">
          <mxGeometry x="1020" y="2815" width="40" height="30" as="geometry"/>
        </mxCell>
        <mxCell id="BwGiMZjiIL-_lYg8AVQy-145" value="11" style="rounded=0;whiteSpace=wrap;html=1;" parent="1" vertex="1">
          <mxGeometry x="1060" y="2815" width="40" height="30" as="geometry"/>
        </mxCell>
        <mxCell id="BwGiMZjiIL-_lYg8AVQy-146" value="19" style="rounded=0;whiteSpace=wrap;html=1;" parent="1" vertex="1">
          <mxGeometry x="1100" y="2815" width="40" height="30" as="geometry"/>
        </mxCell>
        <mxCell id="BwGiMZjiIL-_lYg8AVQy-147" value="" style="rounded=0;whiteSpace=wrap;html=1;" parent="1" vertex="1">
          <mxGeometry x="1140" y="2815" width="40" height="30" as="geometry"/>
        </mxCell>
        <mxCell id="BwGiMZjiIL-_lYg8AVQy-148" value="1" style="rounded=0;whiteSpace=wrap;html=1;" parent="1" vertex="1">
          <mxGeometry x="840" y="2885" width="40" height="30" as="geometry"/>
        </mxCell>
        <mxCell id="BwGiMZjiIL-_lYg8AVQy-149" value="2" style="rounded=0;whiteSpace=wrap;html=1;" parent="1" vertex="1">
          <mxGeometry x="880" y="2885" width="40" height="30" as="geometry"/>
        </mxCell>
        <mxCell id="BwGiMZjiIL-_lYg8AVQy-150" value="" style="rounded=0;whiteSpace=wrap;html=1;" parent="1" vertex="1">
          <mxGeometry x="920" y="2885" width="40" height="30" as="geometry"/>
        </mxCell>
        <mxCell id="BwGiMZjiIL-_lYg8AVQy-151" value="" style="rounded=0;whiteSpace=wrap;html=1;" parent="1" vertex="1">
          <mxGeometry x="960" y="2885" width="40" height="30" as="geometry"/>
        </mxCell>
        <mxCell id="BwGiMZjiIL-_lYg8AVQy-152" value="19" style="rounded=0;whiteSpace=wrap;html=1;" parent="1" vertex="1">
          <mxGeometry x="1450" y="2885" width="40" height="30" as="geometry"/>
        </mxCell>
        <mxCell id="BwGiMZjiIL-_lYg8AVQy-153" value="26" style="rounded=0;whiteSpace=wrap;html=1;" parent="1" vertex="1">
          <mxGeometry x="1490" y="2885" width="40" height="30" as="geometry"/>
        </mxCell>
        <mxCell id="BwGiMZjiIL-_lYg8AVQy-154" value="" style="rounded=0;whiteSpace=wrap;html=1;" parent="1" vertex="1">
          <mxGeometry x="1530" y="2885" width="40" height="30" as="geometry"/>
        </mxCell>
        <mxCell id="BwGiMZjiIL-_lYg8AVQy-155" value="" style="rounded=0;whiteSpace=wrap;html=1;" parent="1" vertex="1">
          <mxGeometry x="1570" y="2885" width="40" height="30" as="geometry"/>
        </mxCell>
        <mxCell id="BwGiMZjiIL-_lYg8AVQy-156" value="" style="endArrow=none;html=1;entryX=0.05;entryY=1.033;entryDx=0;entryDy=0;entryPerimeter=0;exitX=0.5;exitY=0;exitDx=0;exitDy=0;exitPerimeter=0;" parent="1" source="BwGiMZjiIL-_lYg8AVQy-148" target="BwGiMZjiIL-_lYg8AVQy-144" edge="1">
          <mxGeometry width="50" height="50" relative="1" as="geometry">
            <mxPoint x="1050" y="3015" as="sourcePoint"/>
            <mxPoint x="1100" y="2965" as="targetPoint"/>
          </mxGeometry>
        </mxCell>
        <mxCell id="BwGiMZjiIL-_lYg8AVQy-157" value="" style="endArrow=none;html=1;entryX=1;entryY=1;entryDx=0;entryDy=0;entryPerimeter=0;exitX=0.5;exitY=0;exitDx=0;exitDy=0;" parent="1" source="BwGiMZjiIL-_lYg8AVQy-152" target="BwGiMZjiIL-_lYg8AVQy-146" edge="1">
          <mxGeometry width="50" height="50" relative="1" as="geometry">
            <mxPoint x="1140" y="3025" as="sourcePoint"/>
            <mxPoint x="1190" y="2975" as="targetPoint"/>
          </mxGeometry>
        </mxCell>
        <mxCell id="BwGiMZjiIL-_lYg8AVQy-158" value="11" style="rounded=0;whiteSpace=wrap;html=1;" parent="1" vertex="1">
          <mxGeometry x="1250" y="2885" width="40" height="30" as="geometry"/>
        </mxCell>
        <mxCell id="BwGiMZjiIL-_lYg8AVQy-159" value="13" style="rounded=0;whiteSpace=wrap;html=1;" parent="1" vertex="1">
          <mxGeometry x="1290" y="2885" width="40" height="30" as="geometry"/>
        </mxCell>
        <mxCell id="BwGiMZjiIL-_lYg8AVQy-160" value="15" style="rounded=0;whiteSpace=wrap;html=1;" parent="1" vertex="1">
          <mxGeometry x="1330" y="2885" width="40" height="30" as="geometry"/>
        </mxCell>
        <mxCell id="BwGiMZjiIL-_lYg8AVQy-161" value="" style="rounded=0;whiteSpace=wrap;html=1;" parent="1" vertex="1">
          <mxGeometry x="1370" y="2885" width="40" height="30" as="geometry"/>
        </mxCell>
        <mxCell id="BwGiMZjiIL-_lYg8AVQy-162" value="" style="endArrow=none;html=1;entryX=1;entryY=1;entryDx=0;entryDy=0;exitX=0.5;exitY=0;exitDx=0;exitDy=0;entryPerimeter=0;" parent="1" source="BwGiMZjiIL-_lYg8AVQy-158" target="BwGiMZjiIL-_lYg8AVQy-145" edge="1">
          <mxGeometry width="50" height="50" relative="1" as="geometry">
            <mxPoint x="1180" y="3035" as="sourcePoint"/>
            <mxPoint x="1230" y="2985" as="targetPoint"/>
          </mxGeometry>
        </mxCell>
        <mxCell id="BwGiMZjiIL-_lYg8AVQy-163" value="29" style="rounded=0;whiteSpace=wrap;html=1;" parent="1" vertex="1">
          <mxGeometry x="1240" y="2755" width="40" height="30" as="geometry"/>
        </mxCell>
        <mxCell id="BwGiMZjiIL-_lYg8AVQy-164" value="" style="rounded=0;whiteSpace=wrap;html=1;" parent="1" vertex="1">
          <mxGeometry x="1280" y="2755" width="40" height="30" as="geometry"/>
        </mxCell>
        <mxCell id="BwGiMZjiIL-_lYg8AVQy-165" value="" style="rounded=0;whiteSpace=wrap;html=1;" parent="1" vertex="1">
          <mxGeometry x="1320" y="2755" width="40" height="30" as="geometry"/>
        </mxCell>
        <mxCell id="BwGiMZjiIL-_lYg8AVQy-166" value="" style="rounded=0;whiteSpace=wrap;html=1;" parent="1" vertex="1">
          <mxGeometry x="1360" y="2755" width="40" height="30" as="geometry"/>
        </mxCell>
        <mxCell id="BwGiMZjiIL-_lYg8AVQy-167" value="" style="endArrow=none;html=1;entryX=0;entryY=1;entryDx=0;entryDy=0;entryPerimeter=0;exitX=0.5;exitY=0;exitDx=0;exitDy=0;" parent="1" source="BwGiMZjiIL-_lYg8AVQy-144" target="BwGiMZjiIL-_lYg8AVQy-163" edge="1">
          <mxGeometry width="50" height="50" relative="1" as="geometry">
            <mxPoint x="1050" y="2785" as="sourcePoint"/>
            <mxPoint x="1100" y="2735" as="targetPoint"/>
          </mxGeometry>
        </mxCell>
        <mxCell id="BwGiMZjiIL-_lYg8AVQy-168" value="" style="rounded=0;whiteSpace=wrap;html=1;" parent="1" vertex="1">
          <mxGeometry x="1000" y="2885" width="20" height="30" as="geometry"/>
        </mxCell>
        <mxCell id="BwGiMZjiIL-_lYg8AVQy-169" value="" style="endArrow=classic;html=1;entryX=0;entryY=0.5;entryDx=0;entryDy=0;" parent="1" source="BwGiMZjiIL-_lYg8AVQy-168" target="BwGiMZjiIL-_lYg8AVQy-174" edge="1">
          <mxGeometry width="50" height="50" relative="1" as="geometry">
            <mxPoint x="1040" y="3005" as="sourcePoint"/>
            <mxPoint x="1090" y="2955" as="targetPoint"/>
          </mxGeometry>
        </mxCell>
        <mxCell id="BwGiMZjiIL-_lYg8AVQy-170" value="" style="rounded=0;whiteSpace=wrap;html=1;" parent="1" vertex="1">
          <mxGeometry x="1410" y="2885" width="20" height="30" as="geometry"/>
        </mxCell>
        <mxCell id="BwGiMZjiIL-_lYg8AVQy-171" value="" style="endArrow=classic;html=1;entryX=0;entryY=0.5;entryDx=0;entryDy=0;exitX=1;exitY=0.5;exitDx=0;exitDy=0;" parent="1" source="BwGiMZjiIL-_lYg8AVQy-170" target="BwGiMZjiIL-_lYg8AVQy-152" edge="1">
          <mxGeometry width="50" height="50" relative="1" as="geometry">
            <mxPoint x="1430" y="2975" as="sourcePoint"/>
            <mxPoint x="1480" y="2925" as="targetPoint"/>
          </mxGeometry>
        </mxCell>
        <mxCell id="BwGiMZjiIL-_lYg8AVQy-172" value="" style="endArrow=classic;html=1;exitX=1;exitY=0.5;exitDx=0;exitDy=0;" parent="1" edge="1">
          <mxGeometry width="50" height="50" relative="1" as="geometry">
            <mxPoint x="1622" y="2900" as="sourcePoint"/>
            <mxPoint x="1652" y="2900" as="targetPoint"/>
          </mxGeometry>
        </mxCell>
        <mxCell id="BwGiMZjiIL-_lYg8AVQy-173" value="" style="rounded=0;whiteSpace=wrap;html=1;" parent="1" vertex="1">
          <mxGeometry x="1610" y="2885" width="20" height="30" as="geometry"/>
        </mxCell>
        <mxCell id="BwGiMZjiIL-_lYg8AVQy-174" value="8" style="rounded=0;whiteSpace=wrap;html=1;" parent="1" vertex="1">
          <mxGeometry x="1045" y="2885" width="40" height="30" as="geometry"/>
        </mxCell>
        <mxCell id="BwGiMZjiIL-_lYg8AVQy-175" value="10" style="rounded=0;whiteSpace=wrap;html=1;" parent="1" vertex="1">
          <mxGeometry x="1085" y="2885" width="40" height="30" as="geometry"/>
        </mxCell>
        <mxCell id="BwGiMZjiIL-_lYg8AVQy-176" value="" style="rounded=0;whiteSpace=wrap;html=1;" parent="1" vertex="1">
          <mxGeometry x="1125" y="2885" width="40" height="30" as="geometry"/>
        </mxCell>
        <mxCell id="BwGiMZjiIL-_lYg8AVQy-177" value="" style="rounded=0;whiteSpace=wrap;html=1;" parent="1" vertex="1">
          <mxGeometry x="1165" y="2885" width="40" height="30" as="geometry"/>
        </mxCell>
        <mxCell id="BwGiMZjiIL-_lYg8AVQy-178" value="" style="endArrow=classic;html=1;exitX=1;exitY=0.5;exitDx=0;exitDy=0;entryX=0;entryY=0.5;entryDx=0;entryDy=0;" parent="1" source="BwGiMZjiIL-_lYg8AVQy-179" target="BwGiMZjiIL-_lYg8AVQy-158" edge="1">
          <mxGeometry width="50" height="50" relative="1" as="geometry">
            <mxPoint x="1265" y="2955" as="sourcePoint"/>
            <mxPoint x="1255" y="2900" as="targetPoint"/>
          </mxGeometry>
        </mxCell>
        <mxCell id="BwGiMZjiIL-_lYg8AVQy-179" value="" style="rounded=0;whiteSpace=wrap;html=1;" parent="1" vertex="1">
          <mxGeometry x="1205" y="2885" width="20" height="30" as="geometry"/>
        </mxCell>
        <mxCell id="BwGiMZjiIL-_lYg8AVQy-180" value="" style="endArrow=none;html=1;entryX=0.975;entryY=1.033;entryDx=0;entryDy=0;entryPerimeter=0;exitX=0.5;exitY=0;exitDx=0;exitDy=0;" parent="1" source="BwGiMZjiIL-_lYg8AVQy-174" target="BwGiMZjiIL-_lYg8AVQy-144" edge="1">
          <mxGeometry width="50" height="50" relative="1" as="geometry">
            <mxPoint x="1050" y="3035" as="sourcePoint"/>
            <mxPoint x="1100" y="2985" as="targetPoint"/>
          </mxGeometry>
        </mxCell>
        <mxCell id="BwGiMZjiIL-_lYg8AVQy-181" value="删除6" style="text;html=1;strokeColor=none;fillColor=none;align=center;verticalAlign=middle;whiteSpace=wrap;rounded=0;" parent="1" vertex="1">
          <mxGeometry x="840" y="2750" width="40" height="20" as="geometry"/>
        </mxCell>
        <mxCell id="BwGiMZjiIL-_lYg8AVQy-182" value="删除2" style="text;html=1;strokeColor=none;fillColor=none;align=center;verticalAlign=middle;whiteSpace=wrap;rounded=0;" parent="1" vertex="1">
          <mxGeometry x="840" y="2950" width="40" height="20" as="geometry"/>
        </mxCell>
        <mxCell id="BwGiMZjiIL-_lYg8AVQy-183" value="11" style="rounded=0;whiteSpace=wrap;html=1;" parent="1" vertex="1">
          <mxGeometry x="1022.5" y="3010" width="40" height="30" as="geometry"/>
        </mxCell>
        <mxCell id="BwGiMZjiIL-_lYg8AVQy-184" value="19" style="rounded=0;whiteSpace=wrap;html=1;" parent="1" vertex="1">
          <mxGeometry x="1062.5" y="3010" width="40" height="30" as="geometry"/>
        </mxCell>
        <mxCell id="BwGiMZjiIL-_lYg8AVQy-185" value="" style="rounded=0;whiteSpace=wrap;html=1;" parent="1" vertex="1">
          <mxGeometry x="1102.5" y="3010" width="40" height="30" as="geometry"/>
        </mxCell>
        <mxCell id="BwGiMZjiIL-_lYg8AVQy-186" value="" style="rounded=0;whiteSpace=wrap;html=1;" parent="1" vertex="1">
          <mxGeometry x="1142.5" y="3010" width="40" height="30" as="geometry"/>
        </mxCell>
        <mxCell id="BwGiMZjiIL-_lYg8AVQy-187" value="1" style="rounded=0;whiteSpace=wrap;html=1;" parent="1" vertex="1">
          <mxGeometry x="842.5" y="3080" width="40" height="30" as="geometry"/>
        </mxCell>
        <mxCell id="BwGiMZjiIL-_lYg8AVQy-188" value="8" style="rounded=0;whiteSpace=wrap;html=1;" parent="1" vertex="1">
          <mxGeometry x="882.5" y="3080" width="40" height="30" as="geometry"/>
        </mxCell>
        <mxCell id="BwGiMZjiIL-_lYg8AVQy-189" value="10" style="rounded=0;whiteSpace=wrap;html=1;" parent="1" vertex="1">
          <mxGeometry x="922.5" y="3080" width="40" height="30" as="geometry"/>
        </mxCell>
        <mxCell id="BwGiMZjiIL-_lYg8AVQy-190" value="" style="rounded=0;whiteSpace=wrap;html=1;" parent="1" vertex="1">
          <mxGeometry x="962.5" y="3080" width="40" height="30" as="geometry"/>
        </mxCell>
        <mxCell id="BwGiMZjiIL-_lYg8AVQy-191" value="19" style="rounded=0;whiteSpace=wrap;html=1;" parent="1" vertex="1">
          <mxGeometry x="1247.5" y="3080" width="40" height="30" as="geometry"/>
        </mxCell>
        <mxCell id="BwGiMZjiIL-_lYg8AVQy-192" value="26" style="rounded=0;whiteSpace=wrap;html=1;" parent="1" vertex="1">
          <mxGeometry x="1287.5" y="3080" width="40" height="30" as="geometry"/>
        </mxCell>
        <mxCell id="BwGiMZjiIL-_lYg8AVQy-193" value="" style="rounded=0;whiteSpace=wrap;html=1;" parent="1" vertex="1">
          <mxGeometry x="1327.5" y="3080" width="40" height="30" as="geometry"/>
        </mxCell>
        <mxCell id="BwGiMZjiIL-_lYg8AVQy-194" value="" style="rounded=0;whiteSpace=wrap;html=1;" parent="1" vertex="1">
          <mxGeometry x="1367.5" y="3080" width="40" height="30" as="geometry"/>
        </mxCell>
        <mxCell id="BwGiMZjiIL-_lYg8AVQy-195" value="" style="endArrow=none;html=1;entryX=0.05;entryY=1.033;entryDx=0;entryDy=0;entryPerimeter=0;exitX=0.5;exitY=0;exitDx=0;exitDy=0;exitPerimeter=0;" parent="1" source="BwGiMZjiIL-_lYg8AVQy-187" target="BwGiMZjiIL-_lYg8AVQy-183" edge="1">
          <mxGeometry width="50" height="50" relative="1" as="geometry">
            <mxPoint x="1052.5" y="3210" as="sourcePoint"/>
            <mxPoint x="1102.5" y="3160" as="targetPoint"/>
          </mxGeometry>
        </mxCell>
        <mxCell id="BwGiMZjiIL-_lYg8AVQy-197" value="11" style="rounded=0;whiteSpace=wrap;html=1;" parent="1" vertex="1">
          <mxGeometry x="1047.5" y="3080" width="40" height="30" as="geometry"/>
        </mxCell>
        <mxCell id="BwGiMZjiIL-_lYg8AVQy-198" value="13" style="rounded=0;whiteSpace=wrap;html=1;" parent="1" vertex="1">
          <mxGeometry x="1087.5" y="3080" width="40" height="30" as="geometry"/>
        </mxCell>
        <mxCell id="BwGiMZjiIL-_lYg8AVQy-199" value="15" style="rounded=0;whiteSpace=wrap;html=1;" parent="1" vertex="1">
          <mxGeometry x="1127.5" y="3080" width="40" height="30" as="geometry"/>
        </mxCell>
        <mxCell id="BwGiMZjiIL-_lYg8AVQy-200" value="" style="rounded=0;whiteSpace=wrap;html=1;" parent="1" vertex="1">
          <mxGeometry x="1167.5" y="3080" width="40" height="30" as="geometry"/>
        </mxCell>
        <mxCell id="BwGiMZjiIL-_lYg8AVQy-201" value="" style="endArrow=none;html=1;entryX=1;entryY=1;entryDx=0;entryDy=0;exitX=0.5;exitY=0;exitDx=0;exitDy=0;entryPerimeter=0;" parent="1" source="BwGiMZjiIL-_lYg8AVQy-191" target="BwGiMZjiIL-_lYg8AVQy-184" edge="1">
          <mxGeometry width="50" height="50" relative="1" as="geometry">
            <mxPoint x="1182.5" y="3230" as="sourcePoint"/>
            <mxPoint x="1232.5" y="3180" as="targetPoint"/>
          </mxGeometry>
        </mxCell>
        <mxCell id="BwGiMZjiIL-_lYg8AVQy-202" value="29" style="rounded=0;whiteSpace=wrap;html=1;" parent="1" vertex="1">
          <mxGeometry x="1242.5" y="2950" width="40" height="30" as="geometry"/>
        </mxCell>
        <mxCell id="BwGiMZjiIL-_lYg8AVQy-203" value="" style="rounded=0;whiteSpace=wrap;html=1;" parent="1" vertex="1">
          <mxGeometry x="1282.5" y="2950" width="40" height="30" as="geometry"/>
        </mxCell>
        <mxCell id="BwGiMZjiIL-_lYg8AVQy-204" value="" style="rounded=0;whiteSpace=wrap;html=1;" parent="1" vertex="1">
          <mxGeometry x="1322.5" y="2950" width="40" height="30" as="geometry"/>
        </mxCell>
        <mxCell id="BwGiMZjiIL-_lYg8AVQy-205" value="" style="rounded=0;whiteSpace=wrap;html=1;" parent="1" vertex="1">
          <mxGeometry x="1362.5" y="2950" width="40" height="30" as="geometry"/>
        </mxCell>
        <mxCell id="BwGiMZjiIL-_lYg8AVQy-206" value="" style="endArrow=none;html=1;entryX=0;entryY=1;entryDx=0;entryDy=0;entryPerimeter=0;exitX=0.5;exitY=0;exitDx=0;exitDy=0;" parent="1" source="BwGiMZjiIL-_lYg8AVQy-183" target="BwGiMZjiIL-_lYg8AVQy-202" edge="1">
          <mxGeometry width="50" height="50" relative="1" as="geometry">
            <mxPoint x="1052.5" y="2980" as="sourcePoint"/>
            <mxPoint x="1102.5" y="2930" as="targetPoint"/>
          </mxGeometry>
        </mxCell>
        <mxCell id="BwGiMZjiIL-_lYg8AVQy-207" value="" style="rounded=0;whiteSpace=wrap;html=1;" parent="1" vertex="1">
          <mxGeometry x="1002.5" y="3080" width="20" height="30" as="geometry"/>
        </mxCell>
        <mxCell id="BwGiMZjiIL-_lYg8AVQy-208" value="" style="endArrow=classic;html=1;entryX=0;entryY=0.5;entryDx=0;entryDy=0;" parent="1" source="BwGiMZjiIL-_lYg8AVQy-207" target="BwGiMZjiIL-_lYg8AVQy-197" edge="1">
          <mxGeometry width="50" height="50" relative="1" as="geometry">
            <mxPoint x="1042.5" y="3200" as="sourcePoint"/>
            <mxPoint x="1047.5" y="3095" as="targetPoint"/>
          </mxGeometry>
        </mxCell>
        <mxCell id="BwGiMZjiIL-_lYg8AVQy-209" value="" style="rounded=0;whiteSpace=wrap;html=1;" parent="1" vertex="1">
          <mxGeometry x="1207.5" y="3080" width="20" height="30" as="geometry"/>
        </mxCell>
        <mxCell id="BwGiMZjiIL-_lYg8AVQy-210" value="" style="endArrow=classic;html=1;entryX=0;entryY=0.5;entryDx=0;entryDy=0;exitX=1;exitY=0.5;exitDx=0;exitDy=0;" parent="1" source="BwGiMZjiIL-_lYg8AVQy-209" target="BwGiMZjiIL-_lYg8AVQy-191" edge="1">
          <mxGeometry width="50" height="50" relative="1" as="geometry">
            <mxPoint x="1227.5" y="3170" as="sourcePoint"/>
            <mxPoint x="1277.5" y="3120" as="targetPoint"/>
          </mxGeometry>
        </mxCell>
        <mxCell id="BwGiMZjiIL-_lYg8AVQy-211" value="" style="endArrow=classic;html=1;exitX=1;exitY=0.5;exitDx=0;exitDy=0;" parent="1" source="BwGiMZjiIL-_lYg8AVQy-212" edge="1">
          <mxGeometry width="50" height="50" relative="1" as="geometry">
            <mxPoint x="1467.5" y="3150" as="sourcePoint"/>
            <mxPoint x="1457.5" y="3095" as="targetPoint"/>
          </mxGeometry>
        </mxCell>
        <mxCell id="BwGiMZjiIL-_lYg8AVQy-212" value="" style="rounded=0;whiteSpace=wrap;html=1;" parent="1" vertex="1">
          <mxGeometry x="1407.5" y="3080" width="20" height="30" as="geometry"/>
        </mxCell>
        <mxCell id="BwGiMZjiIL-_lYg8AVQy-219" value="" style="endArrow=none;html=1;entryX=0.975;entryY=1.033;entryDx=0;entryDy=0;entryPerimeter=0;exitX=0.5;exitY=0;exitDx=0;exitDy=0;" parent="1" target="BwGiMZjiIL-_lYg8AVQy-183" edge="1">
          <mxGeometry width="50" height="50" relative="1" as="geometry">
            <mxPoint x="1067.5" y="3080" as="sourcePoint"/>
            <mxPoint x="1102.5" y="3180" as="targetPoint"/>
          </mxGeometry>
        </mxCell>
        <mxCell id="sCF1ejpeP_nvZ1mccOUS-1" value="A:1" style="ellipse;whiteSpace=wrap;html=1;aspect=fixed;" parent="1" vertex="1">
          <mxGeometry x="1660" y="2594" width="42" height="42" as="geometry"/>
        </mxCell>
        <mxCell id="sCF1ejpeP_nvZ1mccOUS-4" value="C:8" style="ellipse;whiteSpace=wrap;html=1;aspect=fixed;" parent="1" vertex="1">
          <mxGeometry x="2003" y="2534.5" width="42" height="42" as="geometry"/>
        </mxCell>
        <mxCell id="sCF1ejpeP_nvZ1mccOUS-5" value="X:5" style="ellipse;whiteSpace=wrap;html=1;aspect=fixed;" parent="1" vertex="1">
          <mxGeometry x="1782" y="2535" width="42" height="42" as="geometry"/>
        </mxCell>
        <mxCell id="sCF1ejpeP_nvZ1mccOUS-6" value="M:6" style="ellipse;whiteSpace=wrap;html=1;aspect=fixed;" parent="1" vertex="1">
          <mxGeometry x="1922" y="2534.5" width="42" height="42" as="geometry"/>
        </mxCell>
        <mxCell id="sCF1ejpeP_nvZ1mccOUS-7" value="N:11" style="ellipse;whiteSpace=wrap;html=1;aspect=fixed;" parent="1" vertex="1">
          <mxGeometry x="1884" y="2473" width="42" height="42" as="geometry"/>
        </mxCell>
        <mxCell id="sCF1ejpeP_nvZ1mccOUS-8" value="Z:3" style="ellipse;whiteSpace=wrap;html=1;aspect=fixed;" parent="1" vertex="1">
          <mxGeometry x="1741" y="2594" width="42" height="42" as="geometry"/>
        </mxCell>
        <mxCell id="sCF1ejpeP_nvZ1mccOUS-9" value="B:10" style="ellipse;whiteSpace=wrap;html=1;aspect=fixed;" parent="1" vertex="1">
          <mxGeometry x="1823" y="2474" width="42" height="42" as="geometry"/>
        </mxCell>
        <mxCell id="sCF1ejpeP_nvZ1mccOUS-10" value="4" style="ellipse;whiteSpace=wrap;html=1;aspect=fixed;" parent="1" vertex="1">
          <mxGeometry x="1702" y="2533" width="42" height="42" as="geometry"/>
        </mxCell>
        <mxCell id="sCF1ejpeP_nvZ1mccOUS-11" value="9" style="ellipse;whiteSpace=wrap;html=1;aspect=fixed;" parent="1" vertex="1">
          <mxGeometry x="1744" y="2471" width="42" height="42" as="geometry"/>
        </mxCell>
        <mxCell id="sCF1ejpeP_nvZ1mccOUS-12" value="14" style="ellipse;whiteSpace=wrap;html=1;aspect=fixed;" parent="1" vertex="1">
          <mxGeometry x="1964" y="2471.5" width="42" height="42" as="geometry"/>
        </mxCell>
        <mxCell id="sCF1ejpeP_nvZ1mccOUS-13" value="19" style="ellipse;whiteSpace=wrap;html=1;aspect=fixed;" parent="1" vertex="1">
          <mxGeometry x="1781" y="2411" width="42" height="42" as="geometry"/>
        </mxCell>
        <mxCell id="sCF1ejpeP_nvZ1mccOUS-14" value="25" style="ellipse;whiteSpace=wrap;html=1;aspect=fixed;" parent="1" vertex="1">
          <mxGeometry x="1922" y="2411" width="42" height="42" as="geometry"/>
        </mxCell>
        <mxCell id="sCF1ejpeP_nvZ1mccOUS-15" value="44" style="ellipse;whiteSpace=wrap;html=1;aspect=fixed;" parent="1" vertex="1">
          <mxGeometry x="1853" y="2344" width="42" height="42" as="geometry"/>
        </mxCell>
        <mxCell id="sCF1ejpeP_nvZ1mccOUS-16" value="" style="endArrow=none;html=1;entryX=0;entryY=1;entryDx=0;entryDy=0;exitX=1;exitY=0;exitDx=0;exitDy=0;" parent="1" source="sCF1ejpeP_nvZ1mccOUS-13" target="sCF1ejpeP_nvZ1mccOUS-15" edge="1">
          <mxGeometry width="50" height="50" relative="1" as="geometry">
            <mxPoint x="1480" y="2469" as="sourcePoint"/>
            <mxPoint x="1530" y="2419" as="targetPoint"/>
          </mxGeometry>
        </mxCell>
        <mxCell id="sCF1ejpeP_nvZ1mccOUS-17" value="" style="endArrow=none;html=1;entryX=1;entryY=1;entryDx=0;entryDy=0;exitX=0;exitY=0;exitDx=0;exitDy=0;" parent="1" source="sCF1ejpeP_nvZ1mccOUS-14" target="sCF1ejpeP_nvZ1mccOUS-15" edge="1">
          <mxGeometry width="50" height="50" relative="1" as="geometry">
            <mxPoint x="1656" y="2481" as="sourcePoint"/>
            <mxPoint x="1706" y="2431" as="targetPoint"/>
          </mxGeometry>
        </mxCell>
        <mxCell id="sCF1ejpeP_nvZ1mccOUS-18" value="" style="endArrow=none;html=1;entryX=1;entryY=1;entryDx=0;entryDy=0;exitX=0;exitY=0;exitDx=0;exitDy=0;" parent="1" source="sCF1ejpeP_nvZ1mccOUS-9" target="sCF1ejpeP_nvZ1mccOUS-13" edge="1">
          <mxGeometry width="50" height="50" relative="1" as="geometry">
            <mxPoint x="1462" y="2591" as="sourcePoint"/>
            <mxPoint x="1706.1507575950827" y="2446.8492424049173" as="targetPoint"/>
          </mxGeometry>
        </mxCell>
        <mxCell id="sCF1ejpeP_nvZ1mccOUS-19" value="" style="endArrow=none;html=1;exitX=0;exitY=1;exitDx=0;exitDy=0;entryX=1;entryY=0;entryDx=0;entryDy=0;" parent="1" source="sCF1ejpeP_nvZ1mccOUS-13" target="sCF1ejpeP_nvZ1mccOUS-11" edge="1">
          <mxGeometry width="50" height="50" relative="1" as="geometry">
            <mxPoint x="1704" y="2533" as="sourcePoint"/>
            <mxPoint x="1754" y="2483" as="targetPoint"/>
          </mxGeometry>
        </mxCell>
        <mxCell id="sCF1ejpeP_nvZ1mccOUS-20" value="" style="endArrow=none;html=1;entryX=1;entryY=1;entryDx=0;entryDy=0;exitX=0;exitY=0;exitDx=0;exitDy=0;" parent="1" source="sCF1ejpeP_nvZ1mccOUS-5" target="sCF1ejpeP_nvZ1mccOUS-11" edge="1">
          <mxGeometry width="50" height="50" relative="1" as="geometry">
            <mxPoint x="1574" y="2786" as="sourcePoint"/>
            <mxPoint x="1624" y="2736" as="targetPoint"/>
          </mxGeometry>
        </mxCell>
        <mxCell id="sCF1ejpeP_nvZ1mccOUS-21" value="" style="endArrow=none;html=1;entryX=0;entryY=1;entryDx=0;entryDy=0;exitX=1;exitY=0;exitDx=0;exitDy=0;" parent="1" source="sCF1ejpeP_nvZ1mccOUS-10" target="sCF1ejpeP_nvZ1mccOUS-11" edge="1">
          <mxGeometry width="50" height="50" relative="1" as="geometry">
            <mxPoint x="1511" y="2717" as="sourcePoint"/>
            <mxPoint x="1561" y="2667" as="targetPoint"/>
          </mxGeometry>
        </mxCell>
        <mxCell id="sCF1ejpeP_nvZ1mccOUS-23" value="" style="endArrow=none;html=1;entryX=0;entryY=1;entryDx=0;entryDy=0;exitX=1;exitY=0;exitDx=0;exitDy=0;" parent="1" source="sCF1ejpeP_nvZ1mccOUS-1" target="sCF1ejpeP_nvZ1mccOUS-10" edge="1">
          <mxGeometry width="50" height="50" relative="1" as="geometry">
            <mxPoint x="1503" y="2741" as="sourcePoint"/>
            <mxPoint x="1553" y="2691" as="targetPoint"/>
          </mxGeometry>
        </mxCell>
        <mxCell id="sCF1ejpeP_nvZ1mccOUS-24" value="" style="endArrow=none;html=1;entryX=1;entryY=1;entryDx=0;entryDy=0;exitX=0;exitY=0;exitDx=0;exitDy=0;" parent="1" source="sCF1ejpeP_nvZ1mccOUS-8" target="sCF1ejpeP_nvZ1mccOUS-10" edge="1">
          <mxGeometry width="50" height="50" relative="1" as="geometry">
            <mxPoint x="1563" y="2828" as="sourcePoint"/>
            <mxPoint x="1613" y="2778" as="targetPoint"/>
          </mxGeometry>
        </mxCell>
        <mxCell id="sCF1ejpeP_nvZ1mccOUS-25" value="" style="endArrow=none;html=1;entryX=1;entryY=1;entryDx=0;entryDy=0;exitX=0;exitY=0;exitDx=0;exitDy=0;" parent="1" source="sCF1ejpeP_nvZ1mccOUS-4" target="sCF1ejpeP_nvZ1mccOUS-12" edge="1">
          <mxGeometry width="50" height="50" relative="1" as="geometry">
            <mxPoint x="1941" y="2564" as="sourcePoint"/>
            <mxPoint x="1961.1507575950827" y="2524.8492424049173" as="targetPoint"/>
          </mxGeometry>
        </mxCell>
        <mxCell id="sCF1ejpeP_nvZ1mccOUS-26" value="" style="endArrow=none;html=1;entryX=0;entryY=1;entryDx=0;entryDy=0;exitX=1;exitY=0;exitDx=0;exitDy=0;" parent="1" source="sCF1ejpeP_nvZ1mccOUS-7" target="sCF1ejpeP_nvZ1mccOUS-14" edge="1">
          <mxGeometry width="50" height="50" relative="1" as="geometry">
            <mxPoint x="1941" y="2564" as="sourcePoint"/>
            <mxPoint x="1961.1507575950827" y="2524.8492424049173" as="targetPoint"/>
          </mxGeometry>
        </mxCell>
        <mxCell id="sCF1ejpeP_nvZ1mccOUS-27" value="" style="endArrow=none;html=1;entryX=1;entryY=1;entryDx=0;entryDy=0;exitX=0;exitY=0;exitDx=0;exitDy=0;" parent="1" source="sCF1ejpeP_nvZ1mccOUS-12" target="sCF1ejpeP_nvZ1mccOUS-14" edge="1">
          <mxGeometry width="50" height="50" relative="1" as="geometry">
            <mxPoint x="1941" y="2564" as="sourcePoint"/>
            <mxPoint x="1961.1507575950827" y="2524.8492424049173" as="targetPoint"/>
          </mxGeometry>
        </mxCell>
        <mxCell id="sCF1ejpeP_nvZ1mccOUS-28" value="" style="endArrow=none;html=1;entryX=0;entryY=1;entryDx=0;entryDy=0;exitX=1;exitY=0;exitDx=0;exitDy=0;" parent="1" source="sCF1ejpeP_nvZ1mccOUS-6" target="sCF1ejpeP_nvZ1mccOUS-12" edge="1">
          <mxGeometry width="50" height="50" relative="1" as="geometry">
            <mxPoint x="1941" y="2564" as="sourcePoint"/>
            <mxPoint x="1961.1507575950827" y="2524.8492424049173" as="targetPoint"/>
          </mxGeometry>
        </mxCell>
        <mxCell id="WrbEpV6NZ60smumhyi3Y-1" value="0" style="text;html=1;strokeColor=none;fillColor=none;align=center;verticalAlign=middle;whiteSpace=wrap;rounded=0;" parent="1" vertex="1">
          <mxGeometry x="1813" y="2381" width="40" height="20" as="geometry"/>
        </mxCell>
        <mxCell id="WrbEpV6NZ60smumhyi3Y-2" value="0" style="text;html=1;strokeColor=none;fillColor=none;align=center;verticalAlign=middle;whiteSpace=wrap;rounded=0;" parent="1" vertex="1">
          <mxGeometry x="1755" y="2451" width="40" height="20" as="geometry"/>
        </mxCell>
        <mxCell id="WrbEpV6NZ60smumhyi3Y-3" value="0" style="text;html=1;strokeColor=none;fillColor=none;align=center;verticalAlign=middle;whiteSpace=wrap;rounded=0;" parent="1" vertex="1">
          <mxGeometry x="1715" y="2513" width="40" height="20" as="geometry"/>
        </mxCell>
        <mxCell id="WrbEpV6NZ60smumhyi3Y-4" value="0" style="text;html=1;strokeColor=none;fillColor=none;align=center;verticalAlign=middle;whiteSpace=wrap;rounded=0;" parent="1" vertex="1">
          <mxGeometry x="1673" y="2574" width="40" height="20" as="geometry"/>
        </mxCell>
        <mxCell id="WrbEpV6NZ60smumhyi3Y-5" value="1" style="text;html=1;strokeColor=none;fillColor=none;align=center;verticalAlign=middle;whiteSpace=wrap;rounded=0;" parent="1" vertex="1">
          <mxGeometry x="1733" y="2574" width="40" height="20" as="geometry"/>
        </mxCell>
        <mxCell id="WrbEpV6NZ60smumhyi3Y-6" value="1" style="text;html=1;strokeColor=none;fillColor=none;align=center;verticalAlign=middle;whiteSpace=wrap;rounded=0;" parent="1" vertex="1">
          <mxGeometry x="1772" y="2512.5" width="40" height="20" as="geometry"/>
        </mxCell>
        <mxCell id="WrbEpV6NZ60smumhyi3Y-7" value="1" style="text;html=1;strokeColor=none;fillColor=none;align=center;verticalAlign=middle;whiteSpace=wrap;rounded=0;" parent="1" vertex="1">
          <mxGeometry x="1813" y="2451" width="40" height="20" as="geometry"/>
        </mxCell>
        <mxCell id="WrbEpV6NZ60smumhyi3Y-8" value="1" style="text;html=1;strokeColor=none;fillColor=none;align=center;verticalAlign=middle;whiteSpace=wrap;rounded=0;" parent="1" vertex="1">
          <mxGeometry x="1895" y="2381" width="40" height="20" as="geometry"/>
        </mxCell>
        <mxCell id="WrbEpV6NZ60smumhyi3Y-10" value="1" style="text;html=1;strokeColor=none;fillColor=none;align=center;verticalAlign=middle;whiteSpace=wrap;rounded=0;" parent="1" vertex="1">
          <mxGeometry x="1953" y="2451" width="40" height="20" as="geometry"/>
        </mxCell>
        <mxCell id="WrbEpV6NZ60smumhyi3Y-11" value="1" style="text;html=1;strokeColor=none;fillColor=none;align=center;verticalAlign=middle;whiteSpace=wrap;rounded=0;" parent="1" vertex="1">
          <mxGeometry x="1993" y="2513" width="40" height="20" as="geometry"/>
        </mxCell>
        <mxCell id="WrbEpV6NZ60smumhyi3Y-12" value="0" style="text;html=1;strokeColor=none;fillColor=none;align=center;verticalAlign=middle;whiteSpace=wrap;rounded=0;" parent="1" vertex="1">
          <mxGeometry x="1895" y="2451" width="40" height="20" as="geometry"/>
        </mxCell>
        <mxCell id="WrbEpV6NZ60smumhyi3Y-13" value="0" style="text;html=1;strokeColor=none;fillColor=none;align=center;verticalAlign=middle;whiteSpace=wrap;rounded=0;" parent="1" vertex="1">
          <mxGeometry x="1935" y="2512.5" width="40" height="20" as="geometry"/>
        </mxCell>
        <mxCell id="89Tu80GWmfjJb0bAz_eh-1" value="a" style="rounded=0;whiteSpace=wrap;html=1;" vertex="1" parent="1">
          <mxGeometry x="2123" y="2754.5" width="40" height="30" as="geometry"/>
        </mxCell>
        <mxCell id="89Tu80GWmfjJb0bAz_eh-2" value="b" style="rounded=0;whiteSpace=wrap;html=1;" vertex="1" parent="1">
          <mxGeometry x="2163" y="2754.5" width="40" height="30" as="geometry"/>
        </mxCell>
        <mxCell id="89Tu80GWmfjJb0bAz_eh-3" value="c" style="rounded=0;whiteSpace=wrap;html=1;" vertex="1" parent="1">
          <mxGeometry x="2203" y="2754.5" width="40" height="30" as="geometry"/>
        </mxCell>
        <mxCell id="89Tu80GWmfjJb0bAz_eh-4" value="d" style="rounded=0;whiteSpace=wrap;html=1;" vertex="1" parent="1">
          <mxGeometry x="2243" y="2754.5" width="40" height="30" as="geometry"/>
        </mxCell>
        <mxCell id="89Tu80GWmfjJb0bAz_eh-5" value="e" style="rounded=0;whiteSpace=wrap;html=1;" vertex="1" parent="1">
          <mxGeometry x="2283" y="2754.5" width="40" height="30" as="geometry"/>
        </mxCell>
        <mxCell id="89Tu80GWmfjJb0bAz_eh-6" value="f" style="rounded=0;whiteSpace=wrap;html=1;" vertex="1" parent="1">
          <mxGeometry x="2323" y="2754.5" width="40" height="30" as="geometry"/>
        </mxCell>
        <mxCell id="89Tu80GWmfjJb0bAz_eh-7" value="h" style="rounded=0;whiteSpace=wrap;html=1;" vertex="1" parent="1">
          <mxGeometry x="2363" y="2754.5" width="40" height="30" as="geometry"/>
        </mxCell>
        <mxCell id="89Tu80GWmfjJb0bAz_eh-8" value="i" style="rounded=0;whiteSpace=wrap;html=1;" vertex="1" parent="1">
          <mxGeometry x="2403" y="2754.5" width="40" height="30" as="geometry"/>
        </mxCell>
        <mxCell id="89Tu80GWmfjJb0bAz_eh-9" value="..." style="rounded=0;whiteSpace=wrap;html=1;" vertex="1" parent="1">
          <mxGeometry x="2443" y="2754.5" width="40" height="30" as="geometry"/>
        </mxCell>
        <mxCell id="89Tu80GWmfjJb0bAz_eh-10" value="z" style="rounded=0;whiteSpace=wrap;html=1;" vertex="1" parent="1">
          <mxGeometry x="2483" y="2754.5" width="40" height="30" as="geometry"/>
        </mxCell>
        <mxCell id="89Tu80GWmfjJb0bAz_eh-13" value="leaff" style="rounded=0;whiteSpace=wrap;html=1;" vertex="1" parent="1">
          <mxGeometry x="2123" y="2721.5" width="400" height="33" as="geometry"/>
        </mxCell>
        <mxCell id="89Tu80GWmfjJb0bAz_eh-14" value="a" style="rounded=0;whiteSpace=wrap;html=1;" vertex="1" parent="1">
          <mxGeometry x="2052" y="2911" width="40" height="30" as="geometry"/>
        </mxCell>
        <mxCell id="89Tu80GWmfjJb0bAz_eh-15" value="b" style="rounded=0;whiteSpace=wrap;html=1;" vertex="1" parent="1">
          <mxGeometry x="2092" y="2911" width="40" height="30" as="geometry"/>
        </mxCell>
        <mxCell id="89Tu80GWmfjJb0bAz_eh-16" value="c" style="rounded=0;whiteSpace=wrap;html=1;" vertex="1" parent="1">
          <mxGeometry x="2132" y="2911" width="40" height="30" as="geometry"/>
        </mxCell>
        <mxCell id="89Tu80GWmfjJb0bAz_eh-17" value="d" style="rounded=0;whiteSpace=wrap;html=1;" vertex="1" parent="1">
          <mxGeometry x="2172" y="2911" width="40" height="30" as="geometry"/>
        </mxCell>
        <mxCell id="89Tu80GWmfjJb0bAz_eh-18" value="e" style="rounded=0;whiteSpace=wrap;html=1;" vertex="1" parent="1">
          <mxGeometry x="2212" y="2911" width="40" height="30" as="geometry"/>
        </mxCell>
        <mxCell id="89Tu80GWmfjJb0bAz_eh-19" value="f" style="rounded=0;whiteSpace=wrap;html=1;" vertex="1" parent="1">
          <mxGeometry x="2252" y="2911" width="40" height="30" as="geometry"/>
        </mxCell>
        <mxCell id="89Tu80GWmfjJb0bAz_eh-20" value="h" style="rounded=0;whiteSpace=wrap;html=1;" vertex="1" parent="1">
          <mxGeometry x="2292" y="2911" width="40" height="30" as="geometry"/>
        </mxCell>
        <mxCell id="89Tu80GWmfjJb0bAz_eh-21" value="i" style="rounded=0;whiteSpace=wrap;html=1;" vertex="1" parent="1">
          <mxGeometry x="2332" y="2911" width="40" height="30" as="geometry"/>
        </mxCell>
        <mxCell id="89Tu80GWmfjJb0bAz_eh-22" value="..." style="rounded=0;whiteSpace=wrap;html=1;" vertex="1" parent="1">
          <mxGeometry x="2372" y="2911" width="40" height="30" as="geometry"/>
        </mxCell>
        <mxCell id="89Tu80GWmfjJb0bAz_eh-23" value="z" style="rounded=0;whiteSpace=wrap;html=1;" vertex="1" parent="1">
          <mxGeometry x="2412" y="2911" width="40" height="30" as="geometry"/>
        </mxCell>
        <mxCell id="89Tu80GWmfjJb0bAz_eh-24" value="leaff" style="rounded=0;whiteSpace=wrap;html=1;" vertex="1" parent="1">
          <mxGeometry x="2052" y="2878" width="400" height="33" as="geometry"/>
        </mxCell>
        <mxCell id="89Tu80GWmfjJb0bAz_eh-25" value="a" style="rounded=0;whiteSpace=wrap;html=1;" vertex="1" parent="1">
          <mxGeometry x="2460" y="2911" width="40" height="30" as="geometry"/>
        </mxCell>
        <mxCell id="89Tu80GWmfjJb0bAz_eh-26" value="b" style="rounded=0;whiteSpace=wrap;html=1;" vertex="1" parent="1">
          <mxGeometry x="2500" y="2911" width="40" height="30" as="geometry"/>
        </mxCell>
        <mxCell id="89Tu80GWmfjJb0bAz_eh-27" value="c" style="rounded=0;whiteSpace=wrap;html=1;" vertex="1" parent="1">
          <mxGeometry x="2540" y="2911" width="40" height="30" as="geometry"/>
        </mxCell>
        <mxCell id="89Tu80GWmfjJb0bAz_eh-28" value="d" style="rounded=0;whiteSpace=wrap;html=1;" vertex="1" parent="1">
          <mxGeometry x="2580" y="2911" width="40" height="30" as="geometry"/>
        </mxCell>
        <mxCell id="89Tu80GWmfjJb0bAz_eh-29" value="e" style="rounded=0;whiteSpace=wrap;html=1;" vertex="1" parent="1">
          <mxGeometry x="2620" y="2911" width="40" height="30" as="geometry"/>
        </mxCell>
        <mxCell id="89Tu80GWmfjJb0bAz_eh-30" value="f" style="rounded=0;whiteSpace=wrap;html=1;" vertex="1" parent="1">
          <mxGeometry x="2660" y="2911" width="40" height="30" as="geometry"/>
        </mxCell>
        <mxCell id="89Tu80GWmfjJb0bAz_eh-31" value="h" style="rounded=0;whiteSpace=wrap;html=1;" vertex="1" parent="1">
          <mxGeometry x="2700" y="2911" width="40" height="30" as="geometry"/>
        </mxCell>
        <mxCell id="89Tu80GWmfjJb0bAz_eh-32" value="i" style="rounded=0;whiteSpace=wrap;html=1;" vertex="1" parent="1">
          <mxGeometry x="2740" y="2911" width="40" height="30" as="geometry"/>
        </mxCell>
        <mxCell id="89Tu80GWmfjJb0bAz_eh-33" value="..." style="rounded=0;whiteSpace=wrap;html=1;" vertex="1" parent="1">
          <mxGeometry x="2780" y="2911" width="40" height="30" as="geometry"/>
        </mxCell>
        <mxCell id="89Tu80GWmfjJb0bAz_eh-34" value="z" style="rounded=0;whiteSpace=wrap;html=1;" vertex="1" parent="1">
          <mxGeometry x="2820" y="2911" width="40" height="30" as="geometry"/>
        </mxCell>
        <mxCell id="89Tu80GWmfjJb0bAz_eh-35" value="leaff" style="rounded=0;whiteSpace=wrap;html=1;" vertex="1" parent="1">
          <mxGeometry x="2460" y="2878" width="400" height="33" as="geometry"/>
        </mxCell>
        <mxCell id="89Tu80GWmfjJb0bAz_eh-36" value="" style="endArrow=classic;html=1;exitX=0.5;exitY=1;exitDx=0;exitDy=0;entryX=-0.005;entryY=0.045;entryDx=0;entryDy=0;entryPerimeter=0;" edge="1" parent="1" source="89Tu80GWmfjJb0bAz_eh-1" target="89Tu80GWmfjJb0bAz_eh-24">
          <mxGeometry width="50" height="50" relative="1" as="geometry">
            <mxPoint x="2157" y="2858.5" as="sourcePoint"/>
            <mxPoint x="2207" y="2808.5" as="targetPoint"/>
          </mxGeometry>
        </mxCell>
        <mxCell id="89Tu80GWmfjJb0bAz_eh-37" value="" style="endArrow=classic;html=1;exitX=0.5;exitY=1;exitDx=0;exitDy=0;entryX=0.008;entryY=0.045;entryDx=0;entryDy=0;entryPerimeter=0;" edge="1" parent="1" source="89Tu80GWmfjJb0bAz_eh-5" target="89Tu80GWmfjJb0bAz_eh-35">
          <mxGeometry width="50" height="50" relative="1" as="geometry">
            <mxPoint x="2303" y="2863.5" as="sourcePoint"/>
            <mxPoint x="2353" y="2813.5" as="targetPoint"/>
          </mxGeometry>
        </mxCell>
        <mxCell id="89Tu80GWmfjJb0bAz_eh-38" value="a" style="rounded=0;whiteSpace=wrap;html=1;" vertex="1" parent="1">
          <mxGeometry x="2053" y="3091" width="40" height="30" as="geometry"/>
        </mxCell>
        <mxCell id="89Tu80GWmfjJb0bAz_eh-39" value="b" style="rounded=0;whiteSpace=wrap;html=1;" vertex="1" parent="1">
          <mxGeometry x="2093" y="3091" width="40" height="30" as="geometry"/>
        </mxCell>
        <mxCell id="89Tu80GWmfjJb0bAz_eh-40" value="c" style="rounded=0;whiteSpace=wrap;html=1;" vertex="1" parent="1">
          <mxGeometry x="2133" y="3091" width="40" height="30" as="geometry"/>
        </mxCell>
        <mxCell id="89Tu80GWmfjJb0bAz_eh-41" value="d" style="rounded=0;whiteSpace=wrap;html=1;" vertex="1" parent="1">
          <mxGeometry x="2173" y="3091" width="40" height="30" as="geometry"/>
        </mxCell>
        <mxCell id="89Tu80GWmfjJb0bAz_eh-42" value="e" style="rounded=0;whiteSpace=wrap;html=1;" vertex="1" parent="1">
          <mxGeometry x="2213" y="3091" width="40" height="30" as="geometry"/>
        </mxCell>
        <mxCell id="89Tu80GWmfjJb0bAz_eh-43" value="f" style="rounded=0;whiteSpace=wrap;html=1;" vertex="1" parent="1">
          <mxGeometry x="2253" y="3091" width="40" height="30" as="geometry"/>
        </mxCell>
        <mxCell id="89Tu80GWmfjJb0bAz_eh-44" value="h" style="rounded=0;whiteSpace=wrap;html=1;" vertex="1" parent="1">
          <mxGeometry x="2293" y="3091" width="40" height="30" as="geometry"/>
        </mxCell>
        <mxCell id="89Tu80GWmfjJb0bAz_eh-45" value="i" style="rounded=0;whiteSpace=wrap;html=1;" vertex="1" parent="1">
          <mxGeometry x="2333" y="3091" width="40" height="30" as="geometry"/>
        </mxCell>
        <mxCell id="89Tu80GWmfjJb0bAz_eh-46" value="..." style="rounded=0;whiteSpace=wrap;html=1;" vertex="1" parent="1">
          <mxGeometry x="2373" y="3091" width="40" height="30" as="geometry"/>
        </mxCell>
        <mxCell id="89Tu80GWmfjJb0bAz_eh-47" value="z" style="rounded=0;whiteSpace=wrap;html=1;" vertex="1" parent="1">
          <mxGeometry x="2413" y="3091" width="40" height="30" as="geometry"/>
        </mxCell>
        <mxCell id="89Tu80GWmfjJb0bAz_eh-48" value="leaff" style="rounded=0;whiteSpace=wrap;html=1;" vertex="1" parent="1">
          <mxGeometry x="2053" y="3058" width="400" height="33" as="geometry"/>
        </mxCell>
        <mxCell id="89Tu80GWmfjJb0bAz_eh-49" value="" style="endArrow=classic;html=1;exitX=0.5;exitY=1;exitDx=0;exitDy=0;" edge="1" parent="1" source="89Tu80GWmfjJb0bAz_eh-15" target="89Tu80GWmfjJb0bAz_eh-48">
          <mxGeometry width="50" height="50" relative="1" as="geometry">
            <mxPoint x="2293" y="3043.5" as="sourcePoint"/>
            <mxPoint x="2343" y="2993.5" as="targetPoint"/>
          </mxGeometry>
        </mxCell>
        <mxCell id="89Tu80GWmfjJb0bAz_eh-50" value="a" style="text;html=1;strokeColor=none;fillColor=none;align=center;verticalAlign=middle;whiteSpace=wrap;rounded=0;" vertex="1" parent="1">
          <mxGeometry x="2203" y="2679.5" width="40" height="20" as="geometry"/>
        </mxCell>
        <mxCell id="89Tu80GWmfjJb0bAz_eh-51" value="ab" style="text;html=1;strokeColor=none;fillColor=none;align=center;verticalAlign=middle;whiteSpace=wrap;rounded=0;" vertex="1" parent="1">
          <mxGeometry x="2261" y="2679.5" width="40" height="20" as="geometry"/>
        </mxCell>
        <mxCell id="89Tu80GWmfjJb0bAz_eh-53" value="" style="endArrow=classic;html=1;entryX=0;entryY=0.25;entryDx=0;entryDy=0;exitX=1;exitY=0.5;exitDx=0;exitDy=0;" edge="1" parent="1" source="89Tu80GWmfjJb0bAz_eh-54" target="89Tu80GWmfjJb0bAz_eh-13">
          <mxGeometry width="50" height="50" relative="1" as="geometry">
            <mxPoint x="2022" y="2721.5" as="sourcePoint"/>
            <mxPoint x="2078" y="2775.5" as="targetPoint"/>
          </mxGeometry>
        </mxCell>
        <mxCell id="89Tu80GWmfjJb0bAz_eh-54" value="" style="rounded=0;whiteSpace=wrap;html=1;" vertex="1" parent="1">
          <mxGeometry x="1991" y="2663" width="44" height="29" as="geometry"/>
        </mxCell>
        <mxCell id="89Tu80GWmfjJb0bAz_eh-55" value="root" style="text;html=1;strokeColor=none;fillColor=none;align=center;verticalAlign=middle;whiteSpace=wrap;rounded=0;" vertex="1" parent="1">
          <mxGeometry x="1995" y="2670" width="40" height="20" as="geometry"/>
        </mxCell>
        <mxCell id="89Tu80GWmfjJb0bAz_eh-56" value="" style="rounded=0;whiteSpace=wrap;html=1;" vertex="1" parent="1">
          <mxGeometry x="1873" y="2665" width="44" height="29" as="geometry"/>
        </mxCell>
        <mxCell id="89Tu80GWmfjJb0bAz_eh-57" value="node" style="text;html=1;strokeColor=none;fillColor=none;align=center;verticalAlign=middle;whiteSpace=wrap;rounded=0;" vertex="1" parent="1">
          <mxGeometry x="1877" y="2672" width="40" height="20" as="geometry"/>
        </mxCell>
        <mxCell id="89Tu80GWmfjJb0bAz_eh-58" value="" style="endArrow=classic;html=1;entryX=-0.068;entryY=0.034;entryDx=0;entryDy=0;entryPerimeter=0;exitX=1;exitY=0.5;exitDx=0;exitDy=0;" edge="1" parent="1" source="89Tu80GWmfjJb0bAz_eh-56" target="89Tu80GWmfjJb0bAz_eh-54">
          <mxGeometry width="50" height="50" relative="1" as="geometry">
            <mxPoint x="1915" y="2786" as="sourcePoint"/>
            <mxPoint x="1965" y="2736" as="targetPoint"/>
          </mxGeometry>
        </mxCell>
      </root>
    </mxGraphModel>
  </diagram>
</mxfile>
